<?xml version="1.0" encoding="UTF-8" standalone="no"?>
<!DOCTYPE svg PUBLIC "-//W3C//DTD SVG 20010904//EN"
              "http://www.w3.org/TR/2001/REC-SVG-20010904/DTD/svg10.dtd">

<svg xmlns="http://www.w3.org/2000/svg"
     width="11.2778in" height="5.63889in"
     viewBox="0 0 812 406">
  <path id="Selection"
        fill="none" stroke="black" stroke-width="1"
        d="M 604.83,31.53
           C 617.89,30.29 633.02,35.88 628.36,52.00
             627.79,53.98 626.59,56.32 625.36,57.96
             619.24,66.16 608.65,68.92 599.00,69.83
             586.59,71.00 570.40,65.41 575.47,50.00
             576.23,47.69 577.09,45.96 578.56,44.00
             584.96,35.43 594.77,32.79 604.83,31.53 Z
           M 73.00,35.00
           C 73.00,35.00 166.00,35.00 166.00,35.00
             187.16,35.03 211.13,38.99 212.91,65.00
             213.80,78.07 207.05,93.25 198.70,103.00
             196.14,105.99 191.00,111.12 188.00,113.68
             185.98,115.41 182.86,117.05 182.95,120.09
             183.02,122.67 187.39,130.36 188.74,133.00
             188.74,133.00 204.58,163.00 204.58,163.00
             204.58,163.00 223.78,200.00 223.78,200.00
             223.78,200.00 253.76,257.00 253.76,257.00
             253.76,257.00 266.75,282.00 266.75,282.00
             268.13,284.75 270.98,291.44 273.39,292.98
             275.34,294.22 278.73,294.00 281.00,294.00
             281.00,294.00 334.00,294.00 334.00,294.00
             348.98,294.00 350.84,292.70 351.00,301.00
             351.00,301.00 351.00,310.00 351.00,310.00
             350.86,317.49 348.74,316.99 342.00,317.00
             342.00,317.00 242.00,317.00 242.00,317.00
             232.36,316.98 233.64,316.47 226.37,303.00
             226.37,303.00 207.63,267.00 207.63,267.00
             207.63,267.00 186.49,227.00 186.49,227.00
             186.49,227.00 139.74,137.00 139.74,137.00
             139.74,137.00 123.00,105.00 123.00,105.00
             123.00,105.00 116.13,128.00 116.13,128.00
             116.13,128.00 111.00,151.00 111.00,151.00
             113.33,151.00 118.45,150.53 119.94,152.60
             121.53,154.81 119.43,160.58 118.66,163.00
             118.66,163.00 112.00,188.00 112.00,188.00
             112.00,188.00 85.00,188.00 85.00,188.00
             85.00,188.00 30.00,188.00 30.00,188.00
             30.68,179.96 34.18,170.93 36.42,163.00
             37.09,160.62 38.41,154.12 39.85,152.60
             43.59,148.66 48.88,154.41 52.29,145.98
             52.29,145.98 57.43,128.00 57.43,128.00
             57.43,128.00 74.00,72.00 74.00,72.00
             74.00,72.00 63.00,71.00 63.00,71.00
             63.00,71.00 73.00,35.00 73.00,35.00 Z
           M 465.00,68.00
           C 465.00,68.00 471.29,45.00 471.29,45.00
             471.29,45.00 474.72,35.99 474.72,35.99
             474.72,35.99 482.00,35.00 482.00,35.00
             482.00,35.00 536.00,35.00 536.00,35.00
             536.00,35.00 515.44,106.00 515.44,106.00
             515.44,106.00 502.00,154.00 502.00,154.00
             502.00,154.00 513.00,154.00 513.00,154.00
             513.00,154.00 504.00,188.00 504.00,188.00
             504.00,188.00 443.00,188.00 443.00,188.00
             443.00,188.00 443.00,182.00 443.00,182.00
             431.03,188.20 421.34,190.15 408.00,190.00
             392.68,189.82 377.20,181.51 372.79,166.00
             371.69,162.13 371.99,156.15 372.00,152.00
             372.01,142.70 374.58,134.57 378.00,126.00
             389.99,95.94 413.44,78.62 446.00,79.00
             455.83,79.12 462.83,81.69 471.00,87.00
             471.00,87.00 476.00,68.00 476.00,68.00
             476.00,68.00 465.00,68.00 465.00,68.00 Z
           M 640.00,74.00
           C 640.00,74.00 647.80,48.00 647.80,48.00
             647.80,48.00 651.84,36.60 651.84,36.60
             651.84,36.60 659.00,35.00 659.00,35.00
             659.00,35.00 700.00,35.00 700.00,35.00
             699.43,41.81 694.26,57.72 692.02,65.00
             686.14,84.13 683.99,101.54 665.00,112.65
             652.45,120.00 641.85,119.00 628.00,119.00
             628.32,115.18 630.94,102.25 633.14,99.53
             635.61,96.47 640.85,97.87 646.98,93.87
             653.44,89.66 655.68,81.94 658.00,75.00
             658.00,75.00 640.00,74.00 640.00,74.00 Z
           M 124.00,96.00
           C 131.38,96.00 146.03,97.40 151.98,93.91
             160.55,88.90 164.12,72.68 153.98,67.45
             149.52,65.15 135.61,66.00 130.00,66.00
             130.00,66.00 124.00,96.00 124.00,96.00 Z
           M 226.00,112.00
           C 226.00,112.00 232.42,89.00 232.42,89.00
             233.07,86.68 234.20,81.14 235.73,79.60
             237.55,77.78 240.63,78.02 243.00,78.00
             243.00,78.00 287.00,78.00 287.00,78.00
             288.89,78.00 292.90,77.77 294.36,79.02
             296.81,81.12 292.45,92.95 291.49,96.00
             291.49,96.00 282.28,128.00 282.28,128.00
             280.85,132.83 278.02,141.03 279.43,145.78
             281.91,154.64 297.15,150.29 301.57,145.78
             304.04,143.00 306.14,134.70 307.12,131.00
             307.12,131.00 312.00,112.00 312.00,112.00
             312.00,112.00 300.00,112.00 300.00,112.00
             300.00,112.00 306.28,89.00 306.28,89.00
             306.28,89.00 309.72,79.60 309.72,79.60
             309.72,79.60 318.00,78.00 318.00,78.00
             318.00,78.00 371.00,78.00 371.00,78.00
             371.00,78.00 365.88,99.00 365.88,99.00
             365.88,99.00 356.29,133.00 356.29,133.00
             356.29,133.00 351.00,152.00 351.00,152.00
             351.00,152.00 362.00,152.00 362.00,152.00
             362.00,152.00 355.29,176.00 355.29,176.00
             354.58,178.50 353.47,183.47 351.35,185.01
             349.75,186.17 346.91,185.99 345.00,186.00
             332.68,186.07 302.46,186.87 292.00,185.00
             292.00,185.00 294.00,173.00 294.00,173.00
             279.45,182.47 266.40,187.21 249.00,187.00
             234.61,186.82 225.22,177.49 225.74,163.00
             226.35,146.31 228.98,141.36 233.26,126.00
             233.26,126.00 237.00,113.00 237.00,113.00
             237.00,113.00 226.00,112.00 226.00,112.00 Z
           M 680.00,155.00
           C 680.00,155.00 703.00,155.00 703.00,155.00
             712.41,155.18 710.68,159.37 717.09,164.20
             721.83,167.77 726.30,168.14 732.00,167.98
             736.06,167.87 746.02,165.21 742.29,159.21
             739.97,155.46 731.13,153.54 727.00,152.28
             712.61,147.90 687.00,140.83 688.09,122.00
             690.31,83.55 735.80,68.88 766.00,86.00
             768.31,80.76 769.48,81.04 775.00,81.00
             775.00,81.00 798.00,81.00 798.00,81.00
             798.00,81.00 792.00,103.00 792.00,103.00
             791.33,105.33 790.51,109.54 788.49,110.98
             786.15,112.64 772.59,112.01 769.00,112.00
             766.33,111.99 763.46,112.20 761.00,110.98
             757.27,109.13 748.30,98.26 735.00,101.93
             732.37,102.65 727.90,104.53 727.38,107.60
             726.54,112.54 738.59,114.52 742.00,115.37
             754.72,118.55 777.18,123.56 783.55,136.00
             791.03,150.62 776.19,173.86 764.00,181.38
             752.16,188.69 741.48,190.06 728.00,190.00
             722.91,189.98 717.87,189.32 713.00,187.78
             710.95,187.14 706.94,185.09 705.13,185.23
             702.17,185.45 702.24,188.15 697.95,188.93
             697.95,188.93 671.00,188.93 671.00,188.93
             671.00,188.93 680.00,155.00 680.00,155.00 Z
           M 560.00,81.00
           C 560.00,81.00 620.00,81.00 620.00,81.00
             620.00,81.00 612.42,107.00 612.42,107.00
             612.42,107.00 599.00,154.00 599.00,154.00
             599.00,154.00 606.00,154.00 606.00,154.00
             606.00,154.00 600.15,178.00 600.15,178.00
             600.15,178.00 596.49,186.98 596.49,186.98
             596.49,186.98 589.00,188.00 589.00,188.00
             589.00,188.00 530.00,188.00 530.00,188.00
             530.00,188.00 535.58,167.00 535.58,167.00
             535.58,167.00 539.14,156.31 539.14,156.31
             539.14,156.31 549.72,150.85 549.72,150.85
             549.72,150.85 553.43,139.00 553.43,139.00
             553.43,139.00 560.00,115.00 560.00,115.00
             560.00,115.00 551.00,115.00 551.00,115.00
             551.00,115.00 560.00,81.00 560.00,81.00 Z
           M 445.00,108.33
           C 430.80,111.72 422.66,126.16 421.17,140.00
             419.87,152.17 423.16,163.01 438.00,160.38
             454.39,157.47 462.35,138.06 461.99,123.00
             461.72,111.92 455.85,107.22 445.00,108.33 Z" />
</svg>
